<svg xmlns="http://www.w3.org/2000/svg" width="40" height="40" viewBox="0 0 40 40" fill="none">
  <g clip-path="url(#clip0_204_521)">
    <path opacity="0.54" d="M21.6665 5C13.3832 5 6.6665 11.7167 6.6665 20H1.6665L8.14984 26.4833L8.2665 26.7167L14.9998 20H9.99984C9.99984 13.55 15.2165 8.33333 21.6665 8.33333C28.1165 8.33333 33.3332 13.55 33.3332 20C33.3332 26.45 28.1165 31.6667 21.6665 31.6667C18.4498 31.6667 15.5332 30.35 13.4332 28.2333L11.0665 30.6C13.7832 33.3167 17.5165 35 21.6665 35C29.9498 35 36.6665 28.2833 36.6665 20C36.6665 11.7167 29.9498 5 21.6665 5ZM19.9998 13.3333V21.6667L27.1332 25.9L28.3332 23.8833L22.4998 20.4167V13.3333H19.9998Z" fill="white"/>
  </g>
  <defs>
    <clipPath id="clip0_204_521">
      <rect width="40" height="40" fill="white"/>
    </clipPath>
  </defs>
</svg>